<svg xmlns="http://www.w3.org/2000/svg" viewBox="0 0 24 24" fill="currentColor">
  <path d="M12 0C5.383 0 0 5.383 0 12s5.383 12 12 12 12-5.383 12-12S18.617 0 12 0zm0 1.846c5.596 0 10.154 4.558 10.154 10.154S17.596 22.154 12 22.154 1.846 17.596 1.846 12 6.404 1.846 12 1.846zm-.738 3.693c-.923 0-1.846.923-1.846 1.846v1.846c0 .923.923 1.846 1.846 1.846.923 0 1.846-.923 1.846-1.846V7.385c0-.923-.923-1.846-1.846-1.846zm4.615 0c-.923 0-1.846.923-1.846 1.846v1.846c0 .923.923 1.846 1.846 1.846.923 0 1.846-.923 1.846-1.846V7.385c0-.923-.923-1.846-1.846-1.846zM7.385 12.923c-.923 0-1.846.923-1.846 1.846v1.846c0 .923.923 1.846 1.846 1.846.923 0 1.846-.923 1.846-1.846v-1.846c0-.923-.923-1.846-1.846-1.846zm4.615 0c-.923 0-1.846.923-1.846 1.846v1.846c0 .923.923 1.846 1.846 1.846.923 0 1.846-.923 1.846-1.846v-1.846c0-.923-.923-1.846-1.846-1.846z"/>
</svg>
