<svg xmlns="http://www.w3.org/2000/svg" viewBox="0 0 24 24" fill="currentColor">
  <path d="M12 2C9.5 2 7.5 4 7.5 6.5c0 1.5.7 2.8 1.8 3.7-.3.2-.5.5-.8.8-1.5 1.5-2.5 3.5-2.5 5.5 0 2 .8 3.8 2 5.2.3.3.7.3 1 0s.3-.7 0-1c-1-1.1-1.5-2.5-1.5-4.2 0-1.7.8-3.3 2-4.5.5-.5 1.1-.9 1.8-1.2.5.2 1.1.2 1.7.2.6 0 1.2-.1 1.7-.2.7.3 1.3.7 1.8 1.2 1.2 1.2 2 2.8 2 4.5 0 1.7-.5 3.1-1.5 4.2-.3.3-.3.7 0 1 .3.3.7.3 1 0 1.2-1.4 2-3.2 2-5.2 0-2-1-4-2.5-5.5-.3-.3-.5-.6-.8-.8 1.1-.9 1.8-2.2 1.8-3.7C16.5 4 14.5 2 12 2zm0 1.5c1.9 0 3.5 1.6 3.5 3.5S13.9 10.5 12 10.5 8.5 8.9 8.5 7 10.1 3.5 12 3.5z"/>
</svg>
